<?xml version="1.0" encoding="utf-8"?>
<!-- Generator: Adobe Illustrator 16.0.0, SVG Export Plug-In . SVG Version: 6.00 Build 0)  -->
<!DOCTYPE svg PUBLIC "-//W3C//DTD SVG 1.1//EN" "http://www.w3.org/Graphics/SVG/1.1/DTD/svg11.dtd" [
	<!ENTITY ns_flows "http://ns.adobe.com/Flows/1.0/">
	<!ENTITY ns_extend "http://ns.adobe.com/Extensibility/1.0/">
	<!ENTITY ns_ai "http://ns.adobe.com/AdobeIllustrator/10.0/">
	<!ENTITY ns_graphs "http://ns.adobe.com/Graphs/1.0/">
]>
<svg version="1.1" id="Layer_1" xmlns:x="&ns_extend;" xmlns:i="&ns_ai;" xmlns:graph="&ns_graphs;"
	 xmlns="http://www.w3.org/2000/svg" xmlns:xlink="http://www.w3.org/1999/xlink" xmlns:a="http://ns.adobe.com/AdobeSVGViewerExtensions/3.0/"
	 x="0px" y="0px" width="214.488px" height="60.558px" viewBox="0 0 214.488 60.558" enable-background="new 0 0 214.488 60.558"
	 xml:space="preserve">
<rect y="0" width="214.488" height="60.557"/>
<g>
	<defs>
		<rect id="SVGID_1_" y="0" width="214.488" height="60.558"/>
	</defs>
	<clipPath id="SVGID_2_">
		<use xlink:href="#SVGID_1_"  overflow="visible"/>
	</clipPath>
	<path clip-path="url(#SVGID_2_)" fill="#FFFFFF" d="M198.089,41.752c0-0.942-0.223-1.705-0.619-2.051
		c-0.366-0.344-0.701-0.435-1.543-0.435h-0.681v4.943h0.862C197.46,44.21,198.089,43.43,198.089,41.752 M199.348,41.683
		c0,1.503-0.498,2.599-1.452,3.157c-0.445,0.274-0.943,0.386-1.645,0.386h-2.162v-6.103l-0.579-0.163l0.193-0.853l0.446,0.062
		c0.468,0.062,0.792,0.082,1.167,0.082h1.016c1.025,0,1.646,0.212,2.122,0.709C199.032,39.58,199.348,40.524,199.348,41.683
		 M190.699,38.96l0.518,0.163v2.752c0,0.65,0.03,1.248,0.081,1.938c-0.163-0.477-0.437-1.065-0.761-1.593l-2.266-3.777l-1.694-0.336
		l-0.224,0.853l0.519,0.163v6.103h1.064v-3.798c0-0.629-0.029-1.237-0.092-1.848c0.194,0.508,0.52,1.177,0.874,1.777l2.285,3.868
		h1.279v-6.832l-1.329-0.286L190.699,38.96z M183.427,42.128l-0.954-2.942h-0.112l-0.953,2.942H183.427z M183.153,38.251
		l2.508,6.853l-1.188,0.315l-0.803-2.274h-2.508l-0.803,2.274l-1.179-0.315l2.195-5.98l-0.55-0.182l0.246-0.834l0.353,0.072
		c0.306,0.062,0.457,0.071,0.722,0.071H183.153z M175.984,38.362l-1.328-0.264l-0.225,0.853l0.396,0.132v6.143h4.092V44.21h-2.936
		V38.362z M171.438,42.128l-0.954-2.942h-0.11l-0.955,2.942H171.438z M171.165,38.251l2.508,6.853l-1.188,0.315l-0.802-2.274h-2.509
		l-0.802,2.274l-1.179-0.315l2.194-5.98l-0.549-0.182l0.245-0.834l0.354,0.072c0.306,0.062,0.457,0.071,0.722,0.071H171.165z
		 M163.57,42.067h2.406v-1.016h-2.406v-1.785h3.076v-1.016h-3.006c-0.385,0-0.71-0.021-1.167-0.082l-0.457-0.062l-0.191,0.853
		l0.589,0.163v6.103h4.326V44.21h-3.17V42.067z M160.953,39.083l-0.274-0.833h-4.163v1.016h2.996l-3.412,5.147l0.144,0.813h4.923
		V44.21h-3.574L160.953,39.083z M150.884,42.241c-0.112,0.457-0.204,0.984-0.274,1.554c-0.051-0.498-0.133-0.955-0.224-1.291
		l-1.249-4.253h-0.914l-1.177,4.152c-0.092,0.324-0.214,0.903-0.284,1.392c-0.071-0.54-0.163-1.047-0.245-1.392l-1.097-4.326
		l-1.166,0.275l1.857,6.873h1.036l1.157-4.153c0.102-0.365,0.193-0.791,0.243-1.248c0.051,0.385,0.143,0.812,0.255,1.218
		l1.217,4.184h1.037l1.939-6.873l-1.077-0.275L150.884,42.241z M140.497,42.067h2.406v-1.016h-2.406v-1.785h3.076v-1.016h-3.005
		c-0.386,0-0.711-0.021-1.168-0.082l-0.457-0.062l-0.192,0.853l0.589,0.163v6.103h4.326V44.21h-3.169V42.067z M135.839,38.96
		l0.518,0.163v2.752c0,0.65,0.03,1.248,0.081,1.938c-0.163-0.477-0.437-1.065-0.762-1.593l-2.264-3.777l-1.695-0.336l-0.223,0.853
		l0.518,0.163v6.103h1.065v-3.798c0-0.629-0.03-1.237-0.093-1.848c0.194,0.508,0.52,1.177,0.874,1.777l2.285,3.868h1.278v-6.832
		l-1.329-0.286L135.839,38.96z M191.101,27.838h2.843v-1.016h-2.803c-0.365,0-0.669-0.02-1.137-0.081l-0.457-0.062l-0.192,0.853
		l0.588,0.163v6.102h1.158v-3.005h2.254v-1.016h-2.254V27.838z M187.223,30.355c0-1.796-0.567-2.639-1.765-2.639
		c-0.295,0-0.57,0.07-0.793,0.193c-0.244,0.142-0.427,0.324-0.528,0.538c-0.244,0.518-0.375,1.157-0.375,1.847
		c0,1.016,0.254,1.859,0.65,2.225c0.282,0.253,0.658,0.385,1.086,0.385c0.497,0,0.902-0.173,1.187-0.487
		C187.011,32.052,187.223,31.219,187.223,30.355 M187.051,27.045c0.955,0.549,1.432,1.645,1.432,3.27
		c0,2.355-1.046,3.624-3.006,3.624c-0.73,0-1.351-0.192-1.827-0.559c-0.762-0.589-1.147-1.624-1.147-3.057
		c0-2.385,1.046-3.645,3.036-3.645C186.106,26.679,186.624,26.802,187.051,27.045 M174.452,33.797h4.326v-1.015h-3.169V30.64h2.407
		v-1.016h-2.407v-1.786h3.076v-1.016h-3.006c-0.385,0-0.709-0.02-1.166-0.081l-0.458-0.062l-0.191,0.853l0.588,0.163V33.797z
		 M171.215,33.798v-5.96h1.949v-1.015h-5.046v1.015h1.938v5.96H171.215z M165.876,31.29c0,0.456-0.041,0.791-0.132,0.984
		c-0.174,0.406-0.62,0.631-1.26,0.631c-0.608,0-1.046-0.183-1.237-0.529c-0.123-0.213-0.185-0.567-0.185-1.086v-4.468h-1.157v4.6
		c0,0.628,0.092,1.106,0.265,1.442c0.365,0.701,1.157,1.076,2.284,1.076c1.056,0,1.807-0.306,2.213-0.904
		c0.245-0.365,0.367-0.894,0.367-1.614v-4.6h-1.158V31.29z M157.673,33.798h1.157v-5.96h1.95v-1.015h-5.048v1.015h1.94V33.798z
		 M152.973,27.533l0.396,0.141v6.123h1.157v-6.863l-1.329-0.255L152.973,27.533z M150.172,33.798v-5.96h1.949v-1.015h-5.046v1.015
		h1.938v5.96H150.172z M146.609,31.787c0-0.68-0.224-1.177-0.68-1.523c-0.295-0.213-0.712-0.376-1.473-0.569
		c-0.406-0.111-0.619-0.172-0.771-0.232c-0.488-0.185-0.681-0.417-0.681-0.834c0-0.609,0.457-0.995,1.178-0.995
		c0.681,0,1.035,0.265,1.209,0.904l1.025-0.356c-0.325-1.065-1.006-1.512-2.255-1.512c-1.442,0-2.346,0.782-2.346,2.02
		c0,0.813,0.365,1.391,1.077,1.717c0.203,0.091,0.548,0.203,0.976,0.304c0.375,0.101,0.648,0.183,0.831,0.264
		c0.478,0.193,0.701,0.498,0.701,0.945c0,0.669-0.487,1.065-1.331,1.065c-0.883,0-1.248-0.335-1.472-1.34l-1.024,0.305
		c0.232,1.401,0.933,1.989,2.385,1.989C145.695,33.939,146.609,33.199,146.609,31.787 M139.32,33.797h1.278v-6.833l-1.329-0.285
		l-0.255,0.853l0.52,0.163v2.752c0,0.65,0.029,1.249,0.081,1.938c-0.163-0.476-0.438-1.065-0.763-1.594l-2.264-3.777l-1.695-0.336
		l-0.224,0.853l0.518,0.163v6.102h1.066V30c0-0.629-0.03-1.238-0.092-1.848c0.192,0.508,0.519,1.178,0.874,1.777L139.32,33.797z
		 M133.311,33.797v-6.863l-1.33-0.255l-0.224,0.854l0.396,0.141v6.123H133.311z M186.84,22.384h4.326v-1.015h-3.168v-2.142h2.405
		v-1.016h-2.405v-1.786h3.076V15.41h-3.005c-0.387,0-0.711-0.021-1.169-0.083l-0.457-0.061l-0.191,0.854l0.588,0.162V22.384z
		 M182.444,22.385h1.157v-5.961h1.95v-1.015h-5.047v1.015h1.939V22.385z M177.113,19.288h2.02l-0.954-2.945h-0.111L177.113,19.288z
		 M174.889,22.263l2.194-5.981l-0.549-0.182l0.244-0.834l0.354,0.073c0.306,0.06,0.458,0.071,0.722,0.071h1.006l2.508,6.853
		l-1.188,0.314l-0.803-2.273h-2.508l-0.803,2.273L174.889,22.263z M171.509,22.385h1.157v-5.961h1.95v-1.015h-5.047v1.015h1.939
		V22.385z M166.565,21.572c-0.883,0-1.248-0.335-1.473-1.34l-1.025,0.305c0.233,1.401,0.935,1.989,2.387,1.989
		c1.736,0,2.649-0.74,2.649-2.152c0-0.68-0.223-1.177-0.679-1.523c-0.295-0.213-0.712-0.375-1.473-0.569
		c-0.406-0.111-0.619-0.172-0.772-0.232c-0.488-0.184-0.68-0.417-0.68-0.834c0-0.608,0.457-0.995,1.178-0.995
		c0.679,0,1.035,0.265,1.208,0.904l1.025-0.356c-0.324-1.065-1.005-1.512-2.254-1.512c-1.441,0-2.346,0.782-2.346,2.02
		c0,0.813,0.365,1.391,1.077,1.717c0.203,0.091,0.548,0.203,0.975,0.304c0.376,0.101,0.649,0.182,0.831,0.264
		c0.479,0.193,0.701,0.498,0.701,0.945C167.896,21.176,167.409,21.572,166.565,21.572 M159.216,22.384h4.326v-1.015h-3.169v-2.142
		h2.407v-1.016h-2.407v-1.786h3.076V15.41h-3.006c-0.386,0-0.71-0.021-1.167-0.083l-0.457-0.061l-0.192,0.854l0.589,0.162V22.384z
		 M152.161,15.521l-1.331-0.264l-0.224,0.853l0.396,0.132v6.143h4.092v-1.016h-2.934V15.521z M145.593,19.288h2.021l-0.954-2.945
		h-0.112L145.593,19.288z M143.37,22.263l2.193-5.981l-0.55-0.182l0.245-0.834l0.355,0.073c0.304,0.06,0.455,0.071,0.721,0.071
		h1.005l2.508,6.853l-1.188,0.314l-0.802-2.273h-2.508l-0.803,2.273L143.37,22.263z M138.588,22.384h4.327v-1.015h-3.169v-2.142
		h2.406v-1.016h-2.406v-1.786h3.076V15.41h-3.006c-0.386,0-0.71-0.021-1.168-0.083l-0.457-0.061L138,16.12l0.588,0.162V22.384z
		 M133.29,18.547h0.924c1.006,0,1.422-0.336,1.422-1.147c0-0.396-0.142-0.712-0.386-0.864c-0.173-0.111-0.467-0.162-0.883-0.162
		h-1.077V18.547z M132.133,16.292l-0.579-0.172l0.193-0.854l0.446,0.061c0.468,0.062,0.782,0.083,1.157,0.083h1.199
		c0.842,0,1.309,0.111,1.674,0.395c0.407,0.325,0.642,0.883,0.642,1.523c0,0.671-0.234,1.239-0.65,1.583
		c-0.143,0.123-0.285,0.214-0.558,0.336l1.704,2.864l-1.156,0.487l-1.677-3.158h-1.238v2.944h-1.157V16.292z M123.685,45.322h1.257
		V15.14h-1.257V45.322z M58.82,17.752h2.679l-0.015,27.353h6.641V15.139H58.82V17.752z M37.838,45.106h18.593v-5.593H44.369V32.45
		h9.153v-5.468h-9.233v-6.371H56.48v-5.472H37.838V45.106z M28.838,23.754c0-2.082-0.655-3.103-1.959-3.593
		c-1.022-0.368-1.84-0.368-5.514-0.368v8.287c3.716,0,4.287,0,5.228-0.324C28.672,27.021,28.838,25.388,28.838,23.754
		 M29.858,31.797l6.532,13.309h-7.144L23.57,32.859h-2.205v12.246h-6.226V15.139h9.41c4.861,0,11.025,0.655,11.025,8.698
		C35.574,27.632,34.063,30.531,29.858,31.797 M96.433,20.671h12.216L95.455,39.69v5.415h20.852v-5.576h-12.791l12.791-19.021v-5.295
		H96.433V20.671z M86.816,15.213h6.028v29.892h-5.375l-7.942-14.497c-0.65-1.182-0.694-1.304-2.239-4.928h-0.204
		c0.04,0.855,0.204,4.641,0.204,5.416v14.009H71.26V15.213h6.271l7.696,13.969c0.325,0.611,0.734,1.426,1.02,2.037
		c0.122,0.244,0.528,1.344,0.651,1.546h0.204l-0.164-3.013c-0.122-2.035-0.122-2.28-0.122-3.422V15.213z"/>
</g>
</svg>
